{
  "accessors": [
    {
      "bufferView": 2,
      "componentType": 5126,
      "count": 790,
      "max": [
        2.5743794441223145,
        2.362668752670288,
        28.214365005493164
      ],
      "min": [
        -2.5743601322174072,
        -2.7860755920410156,
        -58.52651596069336
      ],
      "type": "VEC3"
    },
    {
      "bufferView": 2,
      "byteOffset": 9480,
      "componentType": 5126,
      "count": 790,
      "max": [
        0.999764621257782,
        0.9997642636299133,
        0.9820807576179504
      ],
      "min": [
        -0.9997646808624268,
        -0.999765932559967,
        -0.8203880190849304
      ],
      "type": "VEC3"
    },
    {
      "bufferView": 1,
      "componentType": 5126,
      "count": 790,
      "max": [
        1.0,
        1.0
      ],
      "min": [
        0.0,
        0.01000000536441803
      ],
      "type": "VEC2"
    },
    {
      "bufferView": 0,
      "componentType": 5125,
      "count": 4212,
      "type": "SCALAR"
    },
    {
      "bufferView": 2,
      "byteOffset": 18960,
      "componentType": 5126,
      "count": 590,
      "max": [
        0.12785427272319794,
        0.9104475378990173,
        0.6368704438209534
      ],
      "min": [
        0.02992914244532585,
        -0.6256070733070374,
        -0.6368704438209534
      ],
      "type": "VEC3"
    },
    {
      "bufferView": 2,
      "byteOffset": 26040,
      "componentType": 5126,
      "count": 590,
      "max": [
        0.9515069127082825,
        0.45373639464378357,
        0.9968518614768982
      ],
      "min": [
        -0.9515069127082825,
        -0.407582551240921,
        -0.9968518614768982
      ],
      "type": "VEC3"
    },
    {
      "bufferView": 1,
      "byteOffset": 6320,
      "componentType": 5126,
      "count": 590,
      "max": [
        0.625,
        0.75
      ],
      "min": [
        0.0,
        0.0
      ],
      "type": "VEC2"
    },
    {
      "bufferView": 0,
      "byteOffset": 16848,
      "componentType": 5125,
      "count": 870,
      "type": "SCALAR"
    }
  ],
  "asset": {
    "extras": {
      "author": "kubAZ (https://sketchfab.com/az15042009)",
      "license": "CC-BY-4.0 (http://creativecommons.org/licenses/by/4.0/)",
      "source": "https://sketchfab.com/3d-models/trident-7e844027c5cb4245b12baac0355b1ff8",
      "title": "Trident"
    },
    "generator": "Sketchfab-16.31.0",
    "version": "2.0"
  },
  "bufferViews": [
    {
      "buffer": 0,
      "byteLength": 20328,
      "name": "floatBufferViews",
      "target": 34963
    },
    {
      "buffer": 0,
      "byteLength": 11040,
      "byteOffset": 20328,
      "byteStride": 8,
      "name": "floatBufferViews",
      "target": 34962
    },
    {
      "buffer": 0,
      "byteLength": 33120,
      "byteOffset": 31368,
      "byteStride": 12,
      "name": "floatBufferViews",
      "target": 34962
    }
  ],
  "buffers": [
    {
      "byteLength": 64488,
      "uri": "scene.bin"
    }
  ],
  "materials": [
    {
      "doubleSided": true,
      "name": "Material.001",
      "pbrMetallicRoughness": {
        "baseColorFactor": [
          0.391916,
          0.267539,
          0.00120972,
          1.0
        ],
        "metallicFactor": 0.0,
        "roughnessFactor": 0.4373346661627921
      }
    }
  ],
  "meshes": [
    {
      "name": "Cylinder_Material.001_0",
      "primitives": [
        {
          "attributes": {
            "NORMAL": 1,
            "POSITION": 0,
            "TEXCOORD_0": 2
          },
          "indices": 3,
          "material": 0,
          "mode": 4
        }
      ]
    },
    {
      "name": "Cube_Material.001_0",
      "primitives": [
        {
          "attributes": {
            "NORMAL": 5,
            "POSITION": 4,
            "TEXCOORD_0": 6
          },
          "indices": 7,
          "material": 0,
          "mode": 4
        }
      ]
    }
  ],
  "nodes": [
    {
      "children": [
        1
      ],
      "matrix": [
        1.0,
        0.0,
        0.0,
        0.0,
        0.0,
        2.220446049250313e-16,
        -1.0,
        0.0,
        0.0,
        1.0,
        2.220446049250313e-16,
        0.0,
        0.0,
        0.0,
        0.0,
        1.0
      ],
      "name": "Sketchfab_model"
    },
    {
      "children": [
        2
      ],
      "matrix": [
        0.009999999776482582,
        0.0,
        0.0,
        0.0,
        0.0,
        0.0,
        0.009999999776482582,
        0.0,
        0.0,
        -0.009999999776482582,
        0.0,
        0.0,
        0.0,
        0.0,
        0.0,
        1.0
      ],
      "name": "fd5a2c535084478bada2df541021bc3b.fbx"
    },
    {
      "children": [
        3,
        5,
        7
      ],
      "name": "RootNode"
    },
    {
      "children": [
        4
      ],
      "matrix": [
        -65.1558127516791,
        -44.52713915455176,
        -61.417049289096546,
        0.0,
        -32.401349332924404,
        89.53957282709818,
        -30.5420854760369,
        0.0,
        68.59207001076241,
        8.666908837178815e-06,
        -72.76761921184274,
        0.0,
        735.88916015625,
        495.8309326171875,
        692.5791015625,
        1.0
      ],
      "name": "Camera"
    },
    {
      "name": "Object_4"
    },
    {
      "children": [
        6
      ],
      "matrix": [
        5.57588005065918,
        0.0,
        0.0,
        0.0,
        0.0,
        -3.942742618412264,
        -3.94274257139553,
        0.0,
        0.0,
        3.94274257139553,
        -3.942742618412264,
        0.0,
        4.0804494038951754e-16,
        1.8376710414886475,
        0.377841979265213,
        1.0
      ],
      "name": "Cylinder"
    },
    {
      "mesh": 0,
      "name": "Cylinder_Material.001_0"
    },
    {
      "children": [
        8
      ],
      "matrix": [
        100.0,
        0.0,
        0.0,
        0.0,
        0.0,
        70.71067657322371,
        -70.71067966408577,
        0.0,
        0.0,
        70.71067966408577,
        70.71067657322371,
        0.0,
        -7.87563419342041,
        154.54544067382813,
        -153.593994140625,
        1.0
      ],
      "name": "Cube"
    },
    {
      "mesh": 1,
      "name": "Cube_Material.001_0"
    }
  ],
  "scene": 0,
  "scenes": [
    {
      "name": "Sketchfab_Scene",
      "nodes": [
        0
      ]
    }
  ]
}
